<?xml version="1.0" encoding="UTF-8"?>
<svg width="24px" height="24px" viewBox="0 0 24 24" version="1.1" xmlns="http://www.w3.org/2000/svg" xmlns:xlink="http://www.w3.org/1999/xlink">
    <!-- Generator: Sketch 46.2 (44496) - http://www.bohemiancoding.com/sketch -->
    <title>Shape</title>
    <desc>Created with Sketch.</desc>
    <defs></defs>
    <g id="Page-1" stroke="none" stroke-width="1" fill="none" fill-rule="evenodd">
        <g id="Alert-solid" fill-rule="nonzero" fill="#EF574F">
            <path d="M24,12 C24,18.6288871 18.6269516,24 12,24 C5.37304839,24 0,18.6288871 0,12 C0,5.37498387 5.37304839,0 12,0 C18.6269516,0 24,5.37498387 24,12 Z M12,14.4193548 C10.7707258,14.4193548 9.7741935,15.4158871 9.7741935,16.6451613 C9.7741935,17.8744355 10.7707258,18.8709677 12,18.8709677 C13.2292742,18.8709677 14.2258065,17.8744355 14.2258065,16.6451613 C14.2258065,15.4158871 13.2292742,14.4193548 12,14.4193548 Z M9.8867903,6.4187419 L10.2457258,12.9993871 C10.2625161,13.3073226 10.517129,13.5483871 10.8255,13.5483871 L13.1745,13.5483871 C13.482871,13.5483871 13.7374839,13.3073226 13.7542742,12.9993871 L14.1132097,6.4187419 C14.1313548,6.086129 13.8665323,5.80645161 13.5334355,5.80645161 L10.4665161,5.80645161 C10.1334194,5.80645161 9.8686452,6.086129 9.8867903,6.4187419 L9.8867903,6.4187419 Z" id="Shape"></path>
        </g>
    </g>
</svg>