<?xml version="1.0" encoding="UTF-8"?>
<svg width="32px" height="32px" viewBox="0 0 32 32" version="1.1" xmlns="http://www.w3.org/2000/svg" xmlns:xlink="http://www.w3.org/1999/xlink">
    <!-- Generator: Sketch 61.2 (89653) - https://sketch.com -->
    <title>Icons / Alert solid</title>
    <desc>Created with Sketch.</desc>
    <g id="Icons-/-Alert-solid" stroke="none" stroke-width="1" fill="none" fill-rule="evenodd">
        <path d="M28,16 C28,22.6288871 22.6269516,28 16,28 C9.37304839,28 4,22.6288871 4,16 C4,9.37498387 9.37304839,4 16,4 C22.6269516,4 28,9.37498387 28,16 Z M16,18.4193548 C14.7707258,18.4193548 13.7741935,19.4158871 13.7741935,20.6451613 C13.7741935,21.8744355 14.7707258,22.8709677 16,22.8709677 C17.2292742,22.8709677 18.2258065,21.8744355 18.2258065,20.6451613 C18.2258065,19.4158871 17.2292742,18.4193548 16,18.4193548 Z M13.8867903,10.4187419 L14.2457258,16.9993871 C14.2625161,17.3073226 14.517129,17.5483871 14.8255,17.5483871 L17.1745,17.5483871 C17.482871,17.5483871 17.7374839,17.3073226 17.7542742,16.9993871 L18.1132097,10.4187419 C18.1313548,10.086129 17.8665323,9.80645161 17.5334355,9.80645161 L14.4665161,9.80645161 C14.1334194,9.80645161 13.8686452,10.086129 13.8867903,10.4187419 L13.8867903,10.4187419 Z" id="Shape" fill="#1D2939"></path>
    </g>
</svg>