<?xml version="1.0" encoding="UTF-8"?>
<svg width="32px" height="32px" viewBox="0 0 32 32" version="1.1" xmlns="http://www.w3.org/2000/svg" xmlns:xlink="http://www.w3.org/1999/xlink">
    <!-- Generator: Sketch 61.2 (89653) - https://sketch.com -->
    <title>Icons / Alert</title>
    <desc>Created with Sketch.</desc>
    <g id="Icons-/-Alert" stroke="none" stroke-width="1" fill="none" fill-rule="evenodd">
        <path d="M16,4 C9.37304839,4 4,9.37498387 4,16 C4,22.6288871 9.37304839,28 16,28 C22.6269516,28 28,22.6288871 28,16 C28,9.37498387 22.6269516,4 16,4 Z M16,25.6774194 C10.6516774,25.6774194 6.32258065,21.3501129 6.32258065,16 C6.32258065,10.6534677 10.651871,6.32258065 16,6.32258065 C21.3463387,6.32258065 25.6774194,10.6518226 25.6774194,16 C25.6774194,21.3482258 21.3501129,25.6774194 16,25.6774194 Z M18.0322581,20.6451613 C18.0322581,21.7657581 17.1205968,22.6774194 16,22.6774194 C14.8794032,22.6774194 13.9677419,21.7657581 13.9677419,20.6451613 C13.9677419,19.5245645 14.8794032,18.6129032 16,18.6129032 C17.1205968,18.6129032 18.0322581,19.5245645 18.0322581,20.6451613 Z M14.095,10.4160806 L14.4240323,16.9967258 C14.4394677,17.3057742 14.6945645,17.5483871 15.0039516,17.5483871 L16.9960484,17.5483871 C17.3054355,17.5483871 17.5605323,17.3057742 17.5759677,16.9967258 L17.905,10.4160806 C17.9215968,10.0844355 17.6571613,9.80645161 17.3250806,9.80645161 L14.6749194,9.80645161 C14.3428387,9.80645161 14.0784032,10.0844355 14.095,10.4160806 L14.095,10.4160806 Z" id="Shape" fill="#1D2939"></path>
    </g>
</svg>