<?xml version="1.0" encoding="UTF-8"?>
<svg width="24px" height="24px" viewBox="0 0 24 24" version="1.1" xmlns="http://www.w3.org/2000/svg" xmlns:xlink="http://www.w3.org/1999/xlink">
    <!-- Generator: Sketch 46.2 (44496) - http://www.bohemiancoding.com/sketch -->
    <title>Shape</title>
    <desc>Created with Sketch.</desc>
    <defs></defs>
    <g id="Page-1" stroke="none" stroke-width="1" fill="none" fill-rule="evenodd">
        <g id="Check-solid" fill-rule="nonzero" fill="#3FE8B0">
            <path d="M24,12 C24,18.6274355 18.6274355,24 12,24 C5.37256452,24 0,18.6274355 0,12 C0,5.37256452 5.37256452,0 12,0 C18.6274355,0 24,5.37256452 24,12 Z M10.6119677,18.3539032 L19.5151935,9.4506774 C19.8175161,9.1483548 19.8175161,8.6581452 19.5151935,8.3558226 L18.4203387,7.2609677 C18.1180161,6.9585968 17.6278065,6.9585968 17.3254355,7.2609677 L10.0645161,14.5218387 L6.6745645,11.1318871 C6.3722419,10.8295645 5.88203226,10.8295645 5.57966129,11.1318871 L4.48480645,12.2267419 C4.18248387,12.5290645 4.18248387,13.0192742 4.48480645,13.3215968 L9.5170645,18.3538548 C9.8194355,18.6562258 10.3095968,18.6562258 10.6119677,18.3539032 L10.6119677,18.3539032 Z" id="Shape"></path>
        </g>
    </g>
</svg>