<?xml version="1.0" encoding="UTF-8"?>
<svg width="32px" height="32px" viewBox="0 0 32 32" version="1.1" xmlns="http://www.w3.org/2000/svg" xmlns:xlink="http://www.w3.org/1999/xlink">
    <!-- Generator: Sketch 61.2 (89653) - https://sketch.com -->
    <title>Icons / Check</title>
    <desc>Created with Sketch.</desc>
    <g id="Icons-/-Check" stroke="none" stroke-width="1" fill="none" fill-rule="evenodd">
        <path d="M16,4 C9.37256452,4 4,9.37256452 4,16 C4,22.6274355 9.37256452,28 16,28 C22.6274355,28 28,22.6274355 28,16 C28,9.37256452 22.6274355,4 16,4 Z M16,6.32258065 C21.3483226,6.32258065 25.6774194,10.6508548 25.6774194,16 C25.6774194,21.3483226 21.3491452,25.6774194 16,25.6774194 C10.6516774,25.6774194 6.32258065,21.3491452 6.32258065,16 C6.32258065,10.6516774 10.6508548,6.32258065 16,6.32258065 M22.7840645,12.6258226 L21.6936129,11.5265645 C21.4677903,11.2989032 21.1001452,11.2974032 20.8724839,11.5232742 L14.032871,18.3079194 L11.1397097,15.3912903 C10.9138871,15.163629 10.5462419,15.162129 10.3185806,15.3879516 L9.21927419,16.4784032 C8.9916129,16.7042258 8.9901129,17.071871 9.21598387,17.2995806 L13.6086129,21.7277742 C13.8344355,21.9554355 14.2020806,21.9569355 14.4297419,21.7310645 L22.7808226,13.447 C23.0084355,13.221129 23.0098871,12.8534839 22.7840645,12.6258226 L22.7840645,12.6258226 Z" id="Shape" fill="#1D2939"></path>
    </g>
</svg>