<?xml version="1.0" encoding="UTF-8"?>
<svg width="32px" height="32px" viewBox="0 0 32 32" version="1.1" xmlns="http://www.w3.org/2000/svg" xmlns:xlink="http://www.w3.org/1999/xlink">
    <!-- Generator: Sketch 61.2 (89653) - https://sketch.com -->
    <title>Icons / Check solid</title>
    <desc>Created with Sketch.</desc>
    <g id="Icons-/-Check-solid" stroke="none" stroke-width="1" fill="none" fill-rule="evenodd">
        <path d="M28,16 C28,22.6274355 22.6274355,28 16,28 C9.37256452,28 4,22.6274355 4,16 C4,9.37256452 9.37256452,4 16,4 C22.6274355,4 28,9.37256452 28,16 Z M14.6119677,22.3539032 L23.5151935,13.4506774 C23.8175161,13.1483548 23.8175161,12.6581452 23.5151935,12.3558226 L22.4203387,11.2609677 C22.1180161,10.9585968 21.6278065,10.9585968 21.3254355,11.2609677 L14.0645161,18.5218387 L10.6745645,15.1318871 C10.3722419,14.8295645 9.88203226,14.8295645 9.57966129,15.1318871 L8.48480645,16.2267419 C8.18248387,16.5290645 8.18248387,17.0192742 8.48480645,17.3215968 L13.5170645,22.3538548 C13.8194355,22.6562258 14.3095968,22.6562258 14.6119677,22.3539032 L14.6119677,22.3539032 Z" id="Shape" fill="#1D2939"></path>
    </g>
</svg>