<?xml version="1.0" encoding="UTF-8"?>
<svg width="32px" height="32px" viewBox="0 0 32 32" version="1.1" xmlns="http://www.w3.org/2000/svg" xmlns:xlink="http://www.w3.org/1999/xlink">
    <!-- Generator: Sketch 61.2 (89653) - https://sketch.com -->
    <title>Icons / Cross</title>
    <desc>Created with Sketch.</desc>
    <g id="Icons-/-Cross" stroke="none" stroke-width="1" fill="none" fill-rule="evenodd">
        <path d="M16,4 C9.37096774,4 4,9.37096774 4,16 C4,22.6290323 9.37096774,28 16,28 C22.6290323,28 28,22.6290323 28,16 C28,9.37096774 22.6290323,4 16,4 Z M16,25.6774194 C10.6532258,25.6774194 6.32258065,21.3467742 6.32258065,16 C6.32258065,10.6532258 10.6532258,6.32258065 16,6.32258065 C21.3467742,6.32258065 25.6774194,10.6532258 25.6774194,16 C25.6774194,21.3467742 21.3467742,25.6774194 16,25.6774194 Z M20.9258065,12.9903226 L17.916129,16 L20.9258065,19.0096774 C21.1532258,19.2370968 21.1532258,19.6048387 20.9258065,19.8322581 L19.8322581,20.9258065 C19.6048387,21.1532258 19.2370968,21.1532258 19.0096774,20.9258065 L16,17.916129 L12.9903226,20.9258065 C12.7629032,21.1532258 12.3951613,21.1532258 12.1677419,20.9258065 L11.0741935,19.8322581 C10.8467742,19.6048387 10.8467742,19.2370968 11.0741935,19.0096774 L14.083871,16 L11.0741935,12.9903226 C10.8467742,12.7629032 10.8467742,12.3951613 11.0741935,12.1677419 L12.1677419,11.0741935 C12.3951613,10.8467742 12.7629032,10.8467742 12.9903226,11.0741935 L16,14.083871 L19.0096774,11.0741935 C19.2370968,10.8467742 19.6048387,10.8467742 19.8322581,11.0741935 L20.9258065,12.1677419 C21.1532258,12.3951613 21.1532258,12.7629032 20.9258065,12.9903226 L20.9258065,12.9903226 Z" id="Shape" fill="#1D2939"></path>
    </g>
</svg>