<?xml version="1.0" encoding="UTF-8"?>
<svg width="32px" height="32px" viewBox="0 0 32 32" version="1.1" xmlns="http://www.w3.org/2000/svg" xmlns:xlink="http://www.w3.org/1999/xlink">
    <!-- Generator: Sketch 61.2 (89653) - https://sketch.com -->
    <title>Icons / Filter slider</title>
    <desc>Created with Sketch.</desc>
    <g id="Icons-/-Filter-slider" stroke="none" stroke-width="1" fill="none" fill-rule="evenodd">
        <path d="M27.25,7.78571429 L17.5,7.78571429 L17.5,6.71428571 C17.5,6.32142857 17.1625,6 16.75,6 L15.25,6 C14.8375,6 14.5,6.32142857 14.5,6.71428571 L14.5,7.78571429 L4.75,7.78571429 C4.3375,7.78571429 4,8.10714286 4,8.5 L4,9.21428571 C4,9.60714286 4.3375,9.92857143 4.75,9.92857143 L14.5,9.92857143 L14.5,11 C14.5,11.3928571 14.8375,11.7142857 15.25,11.7142857 L16.75,11.7142857 C17.1625,11.7142857 17.5,11.3928571 17.5,11 L17.5,9.92857143 L27.25,9.92857143 C27.6625,9.92857143 28,9.60714286 28,9.21428571 L28,8.5 C28,8.10714286 27.6625,7.78571429 27.25,7.78571429 Z M27.25,22.0714286 L11.5,22.0714286 L11.5,21 C11.5,20.6071429 11.1625,20.2857143 10.75,20.2857143 L9.25,20.2857143 C8.8375,20.2857143 8.5,20.6071429 8.5,21 L8.5,22.0714286 L4.75,22.0714286 C4.3375,22.0714286 4,22.3928571 4,22.7857143 L4,23.5 C4,23.8928571 4.3375,24.2142857 4.75,24.2142857 L8.5,24.2142857 L8.5,25.2857143 C8.5,25.6785714 8.8375,26 9.25,26 L10.75,26 C11.1625,26 11.5,25.6785714 11.5,25.2857143 L11.5,24.2142857 L27.25,24.2142857 C27.6625,24.2142857 28,23.8928571 28,23.5 L28,22.7857143 C28,22.3928571 27.6625,22.0714286 27.25,22.0714286 Z M27.25,14.9285714 L23.5,14.9285714 L23.5,13.8571429 C23.5,13.4642857 23.1625,13.1428571 22.75,13.1428571 L21.25,13.1428571 C20.8375,13.1428571 20.5,13.4642857 20.5,13.8571429 L20.5,14.9285714 L4.75,14.9285714 C4.3375,14.9285714 4,15.25 4,15.6428571 L4,16.3571429 C4,16.75 4.3375,17.0714286 4.75,17.0714286 L20.5,17.0714286 L20.5,18.1428571 C20.5,18.5357143 20.8375,18.8571429 21.25,18.8571429 L22.75,18.8571429 C23.1625,18.8571429 23.5,18.5357143 23.5,18.1428571 L23.5,17.0714286 L27.25,17.0714286 C27.6625,17.0714286 28,16.75 28,16.3571429 L28,15.6428571 C28,15.25 27.6625,14.9285714 27.25,14.9285714 Z" id="Shape" fill="#1D2939"></path>
    </g>
</svg>