<?xml version="1.0" encoding="UTF-8"?>
<svg width="32px" height="32px" viewBox="0 0 32 32" version="1.1" xmlns="http://www.w3.org/2000/svg" xmlns:xlink="http://www.w3.org/1999/xlink">
    <!-- Generator: Sketch 61.2 (89653) - https://sketch.com -->
    <title>Icons / FTE</title>
    <desc>Created with Sketch.</desc>
    <g id="Icons-/-FTE" stroke="none" stroke-width="1" fill="none" fill-rule="evenodd">
        <path d="M29.590365,20.6800625 L25.6395087,16.804092 C25.114478,16.2884418 24.4013113,16.0005371 23.6575177,16.0005371 L20.1879396,16.0005371 C19.4135193,16.0005371 18.7878577,16.6150203 18.7878577,17.3756043 L18.7878577,20.7788955 C18.7878577,21.5093999 19.0809998,22.2055276 19.6060306,22.7211778 L23.5568868,26.5971483 C24.1037939,27.1342839 24.9919708,27.1342839 25.5388779,26.5971483 L29.5859898,22.6223448 C30.137272,22.0852092 30.137272,21.2171981 29.590365,20.6800625 Z M21.5923968,19.7776747 C21.0104878,19.7776747 20.5423354,19.3178866 20.5423354,18.7463743 C20.5423354,18.1748621 21.0104878,17.715074 21.5923968,17.715074 C22.1743059,17.715074 22.6424583,18.1748621 22.6424583,18.7463743 C22.6424583,19.3135895 22.1743059,19.7776747 21.5923968,19.7776747 Z M4.10012293,24.9298794 L4.10012293,23.8298257 C4.10012293,21.7844133 5.7977223,20.1171444 7.88034421,20.1171444 C8.5191316,20.1171444 9.5560673,20.804678 11.8005737,20.804678 C14.0625811,20.804678 15.0776405,20.1171444 15.7208032,20.1171444 C16.0576979,20.1171444 16.3814668,20.1730065 16.69211,20.2589482 L16.69211,18.1533766 C16.3727163,18.1018116 16.0533226,18.0588408 15.7208032,18.0588408 C14.4651046,18.0588408 13.8613193,18.7463743 11.8005737,18.7463743 C9.73982805,18.7463743 9.14041797,18.0588408 7.88034421,18.0588408 C4.63390418,18.0588408 2,20.6413887 2,23.8341228 L2,24.9341765 C2,26.072904 2.94068006,26.9967772 4.10012293,26.9967772 L19.5010244,26.9967772 C19.9254243,26.9967772 20.3191973,26.8721617 20.6517168,26.6573075 L18.8972391,24.9341765 L4.10012293,24.9341765 L4.10012293,24.9298794 Z M11.8005737,17.3713072 C15.2789023,17.3713072 18.1009425,14.5996875 18.1009425,11.1835051 C18.1009425,7.76732262 15.2789023,5 11.8005737,5 C8.32224508,5 5.50020489,7.76732262 5.50020489,11.1878021 C5.50020489,14.6039846 8.32224508,17.3713072 11.8005737,17.3713072 Z M11.8005737,7.06260071 C14.1150842,7.06260071 16.0008195,8.91034718 16.0008195,11.1878021 C16.0008195,13.46096 14.1150842,15.3130036 11.8005737,15.3130036 C9.4860632,15.3130036 7.60032782,13.46096 7.60032782,11.1878021 C7.60032782,8.91034718 9.4860632,7.06260071 11.8005737,7.06260071 Z" id="Shape" fill="#1D2939"></path>
    </g>
</svg>