<?xml version="1.0" encoding="UTF-8"?>
<svg width="32px" height="32px" viewBox="0 0 32 32" version="1.1" xmlns="http://www.w3.org/2000/svg" xmlns:xlink="http://www.w3.org/1999/xlink">
    <!-- Generator: Sketch 61.2 (89653) - https://sketch.com -->
    <title>Icons / Handicap</title>
    <desc>Created with Sketch.</desc>
    <g id="Icons-/-Handicap" stroke="none" stroke-width="1" fill="none" fill-rule="evenodd">
        <path d="M27.442191,22.739688 L27.9414098,23.7472191 C28.0790817,24.0250941 27.9658785,24.3620316 27.6883316,24.5003597 L24.7221749,26.0080471 C24.1533936,26.2899533 23.4574404,26.0455939 23.1954091,25.4585315 L20.1452055,18.6250009 L12.6251419,18.6250009 C12.0612356,18.6250009 11.5843761,18.2074384 11.5098917,17.6484541 C9.89406337,5.53004893 10.012329,6.45826759 10.0000009,6.25000199 C10.0000009,4.9772521 11.056751,3.95134595 12.3407044,4.00178344 C13.5025951,4.04743969 14.4490953,4.99117398 14.497939,6.15297075 C14.5476266,7.33459564 13.6853608,8.3245018 12.5570794,8.47862678 L13.0099388,11.8750015 L19.9375023,11.8750015 C20.248143,11.8750015 20.5000009,12.1268608 20.5000009,12.4375014 L20.5000009,13.5625013 C20.5000009,13.8731419 20.248143,14.1250013 19.9375023,14.1250013 L13.3099857,14.1250013 L13.6099858,16.3750011 L20.8750025,16.3750011 C21.3189477,16.3749897 21.7213814,16.6360684 21.9023151,17.0414698 L24.7726124,23.472016 L26.6867065,22.4862818 C26.9652846,22.3470161 27.3039566,22.4606411 27.442191,22.739688 L27.442191,22.739688 Z M18.6855178,20.8750007 L18.1437365,20.8750007 C17.6156426,23.6474691 15.1739235,25.7500002 12.2500012,25.7500002 C8.9416101,25.7500002 6.25000033,23.0583911 6.25000033,19.7500008 C6.25000033,17.6985166 7.28514111,15.884548 8.86028197,14.8020637 L8.53759442,12.3839233 C5.84818777,13.7448451 4,16.5354542 4,19.7500008 C4,24.2990785 7.70092242,28 12.2500012,28 C15.5596111,28 18.4197365,26.0407658 19.7329398,23.2215161 L18.6855178,20.8750007 Z" id="Shape" fill="#1D2939"></path>
    </g>
</svg>