<?xml version="1.0" encoding="UTF-8"?>
<svg width="24px" height="24px" viewBox="0 0 24 24" version="1.1" xmlns="http://www.w3.org/2000/svg" xmlns:xlink="http://www.w3.org/1999/xlink">
    <!-- Generator: Sketch 46.2 (44496) - http://www.bohemiancoding.com/sketch -->
    <title>Shape</title>
    <desc>Created with Sketch.</desc>
    <defs></defs>
    <g id="Page-1" stroke="none" stroke-width="1" fill="none" fill-rule="evenodd">
        <g id="Handicap" fill-rule="nonzero" fill="#FFFFFF">
            <path d="M23.442191,18.739688 L23.9414098,19.7472191 C24.0790817,20.0250941 23.9658785,20.3620316 23.6883316,20.5003597 L20.7221749,22.0080471 C20.1533936,22.2899533 19.4574404,22.0455939 19.1954091,21.4585315 L16.1452055,14.6250009 L8.6251419,14.6250009 C8.0612356,14.6250009 7.5843761,14.2074384 7.5098917,13.6484541 C5.89406337,1.53004893 6.012329,2.45826759 6.0000009,2.25000199 C6.0000009,0.9772521 7.056751,-0.04865405 8.3407044,0.00178344 C9.5025951,0.04743969 10.4490953,0.99117398 10.497939,2.15297075 C10.5476266,3.33459564 9.6853608,4.3245018 8.5570794,4.47862678 L9.0099388,7.8750015 L15.9375023,7.8750015 C16.248143,7.8750015 16.5000009,8.1268608 16.5000009,8.4375014 L16.5000009,9.5625013 C16.5000009,9.8731419 16.248143,10.1250013 15.9375023,10.1250013 L9.3099857,10.1250013 L9.6099858,12.3750011 L16.8750025,12.3750011 C17.3189477,12.3749897 17.7213814,12.6360684 17.9023151,13.0414698 L20.7726124,19.472016 L22.6867065,18.4862818 C22.9652846,18.3470161 23.3039566,18.4606411 23.442191,18.739688 L23.442191,18.739688 Z M14.6855178,16.8750007 L14.1437365,16.8750007 C13.6156426,19.6474691 11.1739235,21.7500002 8.2500012,21.7500002 C4.9416101,21.7500002 2.25000033,19.0583911 2.25000033,15.7500008 C2.25000033,13.6985166 3.28514111,11.884548 4.86028197,10.8020637 L4.53759442,8.3839233 C1.84818777,9.7448451 0,12.5354542 0,15.7500008 C0,20.2990785 3.70092242,24 8.2500012,24 C11.5596111,24 14.4197365,22.0407658 15.7329398,19.2215161 L14.6855178,16.8750007 Z" id="Shape"></path>
        </g>
    </g>
</svg>