<?xml version="1.0" encoding="UTF-8"?>
<svg width="32px" height="32px" viewBox="0 0 32 32" version="1.1" xmlns="http://www.w3.org/2000/svg" xmlns:xlink="http://www.w3.org/1999/xlink">
    <!-- Generator: Sketch 61.2 (89653) - https://sketch.com -->
    <title>Icons / Home</title>
    <desc>Created with Sketch.</desc>
    <g id="Icons-/-Home" stroke="none" stroke-width="1" fill="none" fill-rule="evenodd">
        <path d="M13.44077,12.9898921 C12.7501761,12.9898921 12.0415273,13.2149031 11.414125,13.7633674 C9.71246528,15.2493774 9.96523171,17.6682455 11.1748996,18.9479955 L15.137916,23.1388251 C15.7111542,23.7435422 16.5055629,23.4904048 16.8395757,23.1388251 L20.8025921,18.9479955 C22.01226,17.6682455 22.2650264,15.2493774 20.5633668,13.7633674 C19.9359644,13.2149031 19.222802,12.9898921 18.5367217,12.9898921 C17.5346834,12.9898921 16.5822956,13.458665 15.9910027,14.0821329 C15.3951961,13.458665 14.4428084,12.9898921 13.44077,12.9898921 Z M19.1641241,15.4837639 C19.9901286,16.2056741 19.4304315,17.176034 19.2543978,17.3682309 L15.986489,20.8183993 L12.7230939,17.3682309 C12.5425465,17.176034 11.9828494,16.2056741 12.8133677,15.4837639 C13.427229,14.944675 14.2261514,15.4321988 14.4428084,15.6618976 L15.9910027,17.2979149 L17.539197,15.6618976 C17.7468266,15.4321988 18.5457491,14.944675 19.1641241,15.4837639 L19.1641241,15.4837639 Z M28.8640356,14.4993408 L26.1061733,12.0523463 L26.1061733,7.37399287 C26.1061733,7.1677328 25.9436806,6.99897456 25.7450784,6.99897456 L24.3006989,6.99897456 C24.1020967,6.99897456 23.939604,7.1677328 23.939604,7.37399287 L23.939604,10.2100689 L17.137479,4.4254114 C16.4739671,3.8581962 15.512552,3.8581962 14.8490401,4.4254114 L3.13151089,14.513404 C2.97804556,14.6446604 2.95547713,14.8790468 3.08186034,15.0431173 L3.99813863,16.2056741 C4.12452184,16.3650569 4.35020615,16.3884955 4.50818516,16.2572391 L5.87583206,14.9587382 L5.87583206,27.2499634 C5.87583206,27.6624835 6.20533115,28 6.60253553,28 L25.3884972,28 C25.7857016,28 26.110687,27.6624835 26.110687,27.2499634 L26.110687,14.9587382 L27.5009024,16.2384882 C27.6543677,16.3697446 27.8845657,16.346306 28.0109489,16.1869232 L28.9272272,15.0243664 C29.044583,14.8649836 29.0175009,14.6305972 28.8640356,14.4993408 L28.8640356,14.4993408 Z M23.9350903,25.7498901 L8.04240141,25.7498901 L8.04240141,13.1164608 L15.7608047,6.55364031 C15.8917016,6.44113482 16.0857901,6.44113482 16.216687,6.55364031 L23.9350903,13.1164608 L23.9350903,25.7498901 Z" id="Shape" fill="#1D2939"></path>
    </g>
</svg>