<?xml version="1.0" encoding="UTF-8"?>
<svg width="26px" height="24px" viewBox="0 0 26 24" version="1.1" xmlns="http://www.w3.org/2000/svg" xmlns:xlink="http://www.w3.org/1999/xlink">
    <!-- Generator: Sketch 46.2 (44496) - http://www.bohemiancoding.com/sketch -->
    <title>Shape</title>
    <desc>Created with Sketch.</desc>
    <defs></defs>
    <g id="Page-1" stroke="none" stroke-width="1" fill="none" fill-rule="evenodd">
        <g id="Home" fill-rule="nonzero" fill="#FFFFFF">
            <path d="M10.44077,8.9898921 C9.7501761,8.9898921 9.0415273,9.2149031 8.414125,9.7633674 C6.71246528,11.2493774 6.96523171,13.6682455 8.1748996,14.9479955 L12.137916,19.1388251 C12.7111542,19.7435422 13.5055629,19.4904048 13.8395757,19.1388251 L17.8025921,14.9479955 C19.01226,13.6682455 19.2650264,11.2493774 17.5633668,9.7633674 C16.9359644,9.2149031 16.222802,8.9898921 15.5367217,8.9898921 C14.5346834,8.9898921 13.5822956,9.458665 12.9910027,10.0821329 C12.3951961,9.458665 11.4428084,8.9898921 10.44077,8.9898921 Z M16.1641241,11.4837639 C16.9901286,12.2056741 16.4304315,13.176034 16.2543978,13.3682309 L12.986489,16.8183993 L9.7230939,13.3682309 C9.5425465,13.176034 8.9828494,12.2056741 9.8133677,11.4837639 C10.427229,10.944675 11.2261514,11.4321988 11.4428084,11.6618976 L12.9910027,13.2979149 L14.539197,11.6618976 C14.7468266,11.4321988 15.5457491,10.944675 16.1641241,11.4837639 L16.1641241,11.4837639 Z M25.8640356,10.4993408 L23.1061733,8.0523463 L23.1061733,3.37399287 C23.1061733,3.1677328 22.9436806,2.99897456 22.7450784,2.99897456 L21.3006989,2.99897456 C21.1020967,2.99897456 20.939604,3.1677328 20.939604,3.37399287 L20.939604,6.2100689 L14.137479,0.4254114 C13.4739671,-0.1418038 12.512552,-0.1418038 11.8490401,0.4254114 L0.13151089,10.513404 C-0.02195444,10.6446604 -0.04452287,10.8790468 0.08186034,11.0431173 L0.99813863,12.2056741 C1.12452184,12.3650569 1.35020615,12.3884955 1.50818516,12.2572391 L2.87583206,10.9587382 L2.87583206,23.2499634 C2.87583206,23.6624835 3.20533115,24 3.60253553,24 L22.3884972,24 C22.7857016,24 23.110687,23.6624835 23.110687,23.2499634 L23.110687,10.9587382 L24.5009024,12.2384882 C24.6543677,12.3697446 24.8845657,12.346306 25.0109489,12.1869232 L25.9272272,11.0243664 C26.044583,10.8649836 26.0175009,10.6305972 25.8640356,10.4993408 L25.8640356,10.4993408 Z M20.9350903,21.7498901 L5.04240141,21.7498901 L5.04240141,9.1164608 L12.7608047,2.55364031 C12.8917016,2.44113482 13.0857901,2.44113482 13.216687,2.55364031 L20.9350903,9.1164608 L20.9350903,21.7498901 Z" id="Shape"></path>
        </g>
    </g>
</svg>