<?xml version="1.0" encoding="UTF-8"?>
<svg width="32px" height="32px" viewBox="0 0 32 32" version="1.1" xmlns="http://www.w3.org/2000/svg" xmlns:xlink="http://www.w3.org/1999/xlink">
    <!-- Generator: Sketch 61.2 (89653) - https://sketch.com -->
    <title>Icons / Information</title>
    <desc>Created with Sketch.</desc>
    <g id="Icons-/-Information" stroke="none" stroke-width="1" fill="none" fill-rule="evenodd">
        <path d="M16,4 C9.37304839,4 4,9.37498387 4,16 C4,22.6288871 9.37304839,28 16,28 C22.6269516,28 28,22.6288871 28,16 C28,9.37498387 22.6269516,4 16,4 Z M16,25.6774194 C10.6516774,25.6774194 6.32258065,21.3501129 6.32258065,16 C6.32258065,10.6534677 10.651871,6.32258065 16,6.32258065 C21.3463387,6.32258065 25.6774194,10.6518226 25.6774194,16 C25.6774194,21.3482258 21.3501129,25.6774194 16,25.6774194 Z M16,9.32258065 C17.1223871,9.32258065 18.0322581,10.2324516 18.0322581,11.3548387 C18.0322581,12.4772258 17.1223871,13.3870968 16,13.3870968 C14.8776129,13.3870968 13.9677419,12.4772258 13.9677419,11.3548387 C13.9677419,10.2324516 14.8776129,9.32258065 16,9.32258065 Z M18.7096774,21.6129032 C18.7096774,21.9335645 18.4496935,22.1935484 18.1290323,22.1935484 L13.8709677,22.1935484 C13.5503065,22.1935484 13.2903226,21.9335645 13.2903226,21.6129032 L13.2903226,20.4516129 C13.2903226,20.1309516 13.5503065,19.8709677 13.8709677,19.8709677 L14.4516129,19.8709677 L14.4516129,16.7741935 L13.8709677,16.7741935 C13.5503065,16.7741935 13.2903226,16.5142097 13.2903226,16.1935484 L13.2903226,15.0322581 C13.2903226,14.7115968 13.5503065,14.4516129 13.8709677,14.4516129 L16.9677419,14.4516129 C17.2884032,14.4516129 17.5483871,14.7115968 17.5483871,15.0322581 L17.5483871,19.8709677 L18.1290323,19.8709677 C18.4496935,19.8709677 18.7096774,20.1309516 18.7096774,20.4516129 L18.7096774,21.6129032 Z" id="Shape" fill="#1D2939"></path>
    </g>
</svg>