<?xml version="1.0" encoding="UTF-8"?>
<svg width="24px" height="24px" viewBox="0 0 24 24" version="1.1" xmlns="http://www.w3.org/2000/svg" xmlns:xlink="http://www.w3.org/1999/xlink">
    <!-- Generator: Sketch 46.2 (44496) - http://www.bohemiancoding.com/sketch -->
    <title>Shape</title>
    <desc>Created with Sketch.</desc>
    <defs></defs>
    <g id="Page-1" stroke="none" stroke-width="1" fill="none" fill-rule="evenodd">
        <g id="Information" fill-rule="nonzero" fill="#FFFFFF">
            <path d="M12,0 C5.37304839,0 0,5.37498387 0,12 C0,18.6288871 5.37304839,24 12,24 C18.6269516,24 24,18.6288871 24,12 C24,5.37498387 18.6269516,0 12,0 Z M12,21.6774194 C6.6516774,21.6774194 2.32258065,17.3501129 2.32258065,12 C2.32258065,6.6534677 6.651871,2.32258065 12,2.32258065 C17.3463387,2.32258065 21.6774194,6.6518226 21.6774194,12 C21.6774194,17.3482258 17.3501129,21.6774194 12,21.6774194 Z M12,5.32258065 C13.1223871,5.32258065 14.0322581,6.2324516 14.0322581,7.3548387 C14.0322581,8.4772258 13.1223871,9.3870968 12,9.3870968 C10.8776129,9.3870968 9.9677419,8.4772258 9.9677419,7.3548387 C9.9677419,6.2324516 10.8776129,5.32258065 12,5.32258065 Z M14.7096774,17.6129032 C14.7096774,17.9335645 14.4496935,18.1935484 14.1290323,18.1935484 L9.8709677,18.1935484 C9.5503065,18.1935484 9.2903226,17.9335645 9.2903226,17.6129032 L9.2903226,16.4516129 C9.2903226,16.1309516 9.5503065,15.8709677 9.8709677,15.8709677 L10.4516129,15.8709677 L10.4516129,12.7741935 L9.8709677,12.7741935 C9.5503065,12.7741935 9.2903226,12.5142097 9.2903226,12.1935484 L9.2903226,11.0322581 C9.2903226,10.7115968 9.5503065,10.4516129 9.8709677,10.4516129 L12.9677419,10.4516129 C13.2884032,10.4516129 13.5483871,10.7115968 13.5483871,11.0322581 L13.5483871,15.8709677 L14.1290323,15.8709677 C14.4496935,15.8709677 14.7096774,16.1309516 14.7096774,16.4516129 L14.7096774,17.6129032 Z" id="Shape"></path>
        </g>
    </g>
</svg>