<?xml version="1.0" encoding="UTF-8"?>
<svg width="24px" height="24px" viewBox="0 0 24 24" version="1.1" xmlns="http://www.w3.org/2000/svg" xmlns:xlink="http://www.w3.org/1999/xlink">
    <!-- Generator: Sketch 46.2 (44496) - http://www.bohemiancoding.com/sketch -->
    <title>Shape</title>
    <desc>Created with Sketch.</desc>
    <defs></defs>
    <g id="Page-1" stroke="none" stroke-width="1" fill="none" fill-rule="evenodd">
        <g id="Mental" fill-rule="nonzero" fill="#FFFFFF">
            <path d="M23.8694737,12.8654971 C22.8898246,10.6610526 21.6032749,5.76701754 20.4505263,4.12865497 C18.6284775,1.54013617 15.660923,0 12.4954386,0 L9.4035088,0 C4.51321637,0 0.23953216,3.74643275 0.05333333,8.6339181 C-0.05108302,11.3059638 1.04480441,13.8847142 3.04093567,15.6640936 L3.04093567,23.2046784 C3.04093567,23.6180845 3.37606756,23.9532164 3.78947368,23.9532164 L4.5380117,23.9532164 C4.95141782,23.9532164 5.28654971,23.6180845 5.28654971,23.2046784 L5.28654971,14.6615205 L4.5380117,13.9920468 C2.34432749,12.0233918 1.58783626,8.7653801 3.03438596,5.92187135 C4.21988304,3.59204678 6.7419883,2.24561404 9.3567251,2.24561404 L12.4959064,2.24561404 C14.9302341,2.24659075 17.2121657,3.43082913 18.614269,5.42081871 C19.1382456,6.1651462 19.9270175,8.4930994 20.5033918,10.1927485 C20.8098246,11.0966082 21.1050292,11.9667836 21.3922807,12.7251462 L18.7602339,12.7251462 L18.7602339,17.9649123 C18.7602339,18.3783184 18.425102,18.7134503 18.0116959,18.7134503 L14.2690058,18.7134503 L14.2690058,23.2046784 C14.2690058,23.6180845 14.6041377,23.9532164 15.0175439,23.9532164 L15.7660819,23.9532164 C16.179488,23.9532164 16.5146199,23.6180845 16.5146199,23.2046784 L16.5146199,20.9590643 L18.0116959,20.9590643 C19.6653204,20.9590643 21.005848,19.6185368 21.005848,17.9649123 L21.005848,14.9707602 L22.502924,14.9707602 C23.0094755,14.9702794 23.4814273,14.7136766 23.7572265,14.288789 C24.0330257,13.8639015 24.0752605,13.3283647 23.8694737,12.8654971 Z M14.7181287,8.9824561 C15.7104094,8.9824561 16.5146199,8.211462 16.5146199,7.2608187 C16.5146199,6.3101754 15.7104094,5.53918129 14.7181287,5.53918129 L14.5964912,5.53918129 C14.3486732,4.82518308 13.6774111,4.34517439 12.9216374,4.34152047 C12.5894737,4.34152047 12.2956725,4.45614035 12.0290058,4.61333333 C11.7122807,4.1019883 11.1719298,3.74269006 10.5263158,3.74269006 C9.8807018,3.74269006 9.3408187,4.1019883 9.0240936,4.61333333 C8.7569591,4.45614035 8.4626901,4.34152047 8.1309942,4.34152047 C7.1388194,4.34152047 6.3345029,5.14583699 6.3345029,6.1380117 C5.34232822,6.1380117 4.5380117,6.9423282 4.5380117,7.9345029 C4.5380117,8.7223392 5.05263158,9.3726316 5.75953216,9.6149708 C5.75672515,9.6552047 5.73567251,9.6898246 5.73567251,9.7309942 C5.73567251,10.7231689 6.539989,11.5274854 7.5321637,11.5274854 C7.7372526,11.5221891 7.9398675,11.4813495 8.1309942,11.4067836 L8.1309942,13.4736842 L10.5263158,13.4736842 L10.5263158,11.4067836 C10.7174425,11.4813495 10.9200574,11.5221891 11.1251462,11.5274854 C12.1173209,11.5274854 12.9216374,10.7231689 12.9216374,9.7309942 C12.9189909,9.4717128 12.8594194,9.2161781 12.7471345,8.9824561 L14.7181287,8.9824561 Z" id="Shape"></path>
        </g>
    </g>
</svg>