<?xml version="1.0" encoding="UTF-8"?>
<svg width="32px" height="32px" viewBox="0 0 32 32" version="1.1" xmlns="http://www.w3.org/2000/svg" xmlns:xlink="http://www.w3.org/1999/xlink">
    <!-- Generator: Sketch 61.2 (89653) - https://sketch.com -->
    <title>Icons / Mental</title>
    <desc>Created with Sketch.</desc>
    <g id="Icons-/-Mental" stroke="none" stroke-width="1" fill="none" fill-rule="evenodd">
        <path d="M27.8694737,16.8654971 C26.8898246,14.6610526 25.6032749,9.76701754 24.4505263,8.12865497 C22.6284775,5.54013617 19.660923,4 16.4954386,4 L13.4035088,4 C8.51321637,4 4.23953216,7.74643275 4.05333333,12.6339181 C3.94891698,15.3059638 5.04480441,17.8847142 7.04093567,19.6640936 L7.04093567,27.2046784 C7.04093567,27.6180845 7.37606756,27.9532164 7.78947368,27.9532164 L8.5380117,27.9532164 C8.95141782,27.9532164 9.28654971,27.6180845 9.28654971,27.2046784 L9.28654971,18.6615205 L8.5380117,17.9920468 C6.34432749,16.0233918 5.58783626,12.7653801 7.03438596,9.92187135 C8.21988304,7.59204678 10.7419883,6.24561404 13.3567251,6.24561404 L16.4959064,6.24561404 C18.9302341,6.24659075 21.2121657,7.43082913 22.614269,9.42081871 C23.1382456,10.1651462 23.9270175,12.4930994 24.5033918,14.1927485 C24.8098246,15.0966082 25.1050292,15.9667836 25.3922807,16.7251462 L22.7602339,16.7251462 L22.7602339,21.9649123 C22.7602339,22.3783184 22.425102,22.7134503 22.0116959,22.7134503 L18.2690058,22.7134503 L18.2690058,27.2046784 C18.2690058,27.6180845 18.6041377,27.9532164 19.0175439,27.9532164 L19.7660819,27.9532164 C20.179488,27.9532164 20.5146199,27.6180845 20.5146199,27.2046784 L20.5146199,24.9590643 L22.0116959,24.9590643 C23.6653204,24.9590643 25.005848,23.6185368 25.005848,21.9649123 L25.005848,18.9707602 L26.502924,18.9707602 C27.0094755,18.9702794 27.4814273,18.7136766 27.7572265,18.288789 C28.0330257,17.8639015 28.0752605,17.3283647 27.8694737,16.8654971 Z M18.7181287,12.9824561 C19.7104094,12.9824561 20.5146199,12.211462 20.5146199,11.2608187 C20.5146199,10.3101754 19.7104094,9.53918129 18.7181287,9.53918129 L18.5964912,9.53918129 C18.3486732,8.82518308 17.6774111,8.34517439 16.9216374,8.34152047 C16.5894737,8.34152047 16.2956725,8.45614035 16.0290058,8.61333333 C15.7122807,8.1019883 15.1719298,7.74269006 14.5263158,7.74269006 C13.8807018,7.74269006 13.3408187,8.1019883 13.0240936,8.61333333 C12.7569591,8.45614035 12.4626901,8.34152047 12.1309942,8.34152047 C11.1388194,8.34152047 10.3345029,9.14583699 10.3345029,10.1380117 C9.34232822,10.1380117 8.5380117,10.9423282 8.5380117,11.9345029 C8.5380117,12.7223392 9.05263158,13.3726316 9.75953216,13.6149708 C9.75672515,13.6552047 9.73567251,13.6898246 9.73567251,13.7309942 C9.73567251,14.7231689 10.539989,15.5274854 11.5321637,15.5274854 C11.7372526,15.5221891 11.9398675,15.4813495 12.1309942,15.4067836 L12.1309942,17.4736842 L14.5263158,17.4736842 L14.5263158,15.4067836 C14.7174425,15.4813495 14.9200574,15.5221891 15.1251462,15.5274854 C16.1173209,15.5274854 16.9216374,14.7231689 16.9216374,13.7309942 C16.9189909,13.4717128 16.8594194,13.2161781 16.7471345,12.9824561 L18.7181287,12.9824561 Z" id="Shape" fill="#1D2939"></path>
    </g>
</svg>