<?xml version="1.0" encoding="UTF-8"?>
<svg width="32px" height="32px" viewBox="0 0 32 32" version="1.1" xmlns="http://www.w3.org/2000/svg" xmlns:xlink="http://www.w3.org/1999/xlink">
    <!-- Generator: Sketch 61.2 (89653) - https://sketch.com -->
    <title>Icons / Money</title>
    <desc>Created with Sketch.</desc>
    <g id="Icons-/-Money" stroke="none" stroke-width="1" fill="none" fill-rule="evenodd">
        <path d="M18.75,5 C14.1953125,5 10.5,6.53828125 10.5,8.4375 L10.5,10.6976562 C7.29882812,11.1703125 5,12.4421875 5,13.9375 L5,23.5625 C5,25.4617187 8.6953125,27 13.25,27 C17.8046875,27 21.5,25.4617187 21.5,23.5625 L21.5,21.2980469 C24.7011719,20.8253906 27,19.5578125 27,18.0625 L27,8.4375 C27,6.53828125 23.3046875,5 18.75,5 Z M19.4375,23.4035156 C19.0078125,23.90625 16.8421875,24.9375 13.25,24.9375 C9.6578125,24.9375 7.4921875,23.90625 7.0625,23.4035156 L7.0625,21.70625 C8.575,22.4195313 10.7835937,22.875 13.25,22.875 C15.7164063,22.875 17.925,22.4195312 19.4375,21.70625 L19.4375,23.4035156 Z M19.4375,19.2785156 C19.0078125,19.78125 16.8421875,20.8125 13.25,20.8125 C9.6578125,20.8125 7.4921875,19.78125 7.0625,19.2785156 L7.0625,17.3492187 C8.575,18.2085937 10.7835937,18.75 13.25,18.75 C15.7164063,18.75 17.925,18.2042969 19.4375,17.3492187 L19.4375,19.2785156 Z M13.25,16.6875 C9.83398438,16.6875 7.0625,15.7636719 7.0625,14.625 C7.0625,13.4863281 9.83398438,12.5625 13.25,12.5625 C16.6660156,12.5625 19.4375,13.4863281 19.4375,14.625 C19.4375,15.7636719 16.6660156,16.6875 13.25,16.6875 Z M24.9375,17.9035156 C24.6324219,18.2601563 23.4378906,18.8746094 21.5,19.2097656 L21.5,17.1601562 C22.8320312,16.9625 24.0222656,16.6402344 24.9375,16.20625 L24.9375,17.9035156 Z M24.9375,13.7785156 C24.6324219,14.1351563 23.4378906,14.7496094 21.5,15.0847656 L21.5,13.9375 C21.5,13.628125 21.3925781,13.3273438 21.2078125,13.0394531 C22.6601562,12.8117188 23.9578125,12.4035156 24.9375,11.8449219 L24.9375,13.7785156 L24.9375,13.7785156 Z M18.75,11.1875 C18.5351562,11.1875 18.3289062,11.1746094 18.1183594,11.1660156 C17.0011719,10.8265625 15.6777344,10.5988281 14.2339844,10.5257812 C13.2070312,10.15625 12.5625,9.66640625 12.5625,9.125 C12.5625,7.98632812 15.3339844,7.0625 18.75,7.0625 C22.1660156,7.0625 24.9375,7.98632812 24.9375,9.125 C24.9375,10.2636719 22.1660156,11.1875 18.75,11.1875 Z" id="Shape" fill="#1D2939"></path>
    </g>
</svg>