<?xml version="1.0" encoding="UTF-8"?>
<svg width="32px" height="32px" viewBox="0 0 32 32" version="1.1" xmlns="http://www.w3.org/2000/svg" xmlns:xlink="http://www.w3.org/1999/xlink">
    <!-- Generator: Sketch 61.2 (89653) - https://sketch.com -->
    <title>Icons / Percentage</title>
    <desc>Created with Sketch.</desc>
    <g id="Icons-/-Percentage" stroke="none" stroke-width="1" fill="none" fill-rule="evenodd">
        <path d="M25.8539378,8.2675036 C26.0489381,8.07250329 26.0489381,7.75562779 25.8539378,7.56062748 L24.4395605,6.14625023 C24.2445602,5.95124992 23.9276847,5.95124992 23.7326844,6.14625023 L6.14640648,23.7319031 C5.95140617,23.9269035 5.95140617,24.243779 6.14640648,24.4387793 L7.56078373,25.8531565 C7.75578404,26.0481568 8.07265954,26.0481568 8.26765985,25.8531565 L24.5314357,9.5900057 L25.8539378,8.2675036 Z M10.0001626,14.0000127 C11.0239142,14.0000127 12.0476659,13.6093871 12.8282921,12.8287608 C14.3901696,11.2668834 14.3901696,8.73375434 12.8282921,7.17187686 C12.0476659,6.39062562 11.0239142,6 10.0001626,6 C8.97641098,6 7.95265935,6.39062562 7.17140811,7.17187686 C5.60953063,8.73375434 5.60953063,11.2668834 7.17140811,12.8287608 C7.95265935,13.6093871 8.97641098,14.0000127 10.0001626,14.0000127 Z M8.58641036,8.5856291 C8.96391096,8.20812851 9.46578675,8.00000317 10.0001626,8.00000317 C10.5345384,8.00000317 11.0364142,8.20812851 11.4145398,8.5856291 C12.1945411,9.36563034 12.1939161,10.6343824 11.4145398,11.4137586 C11.0370392,11.7918842 10.5345384,12.0000032 10.0001626,12.0000032 C9.46578675,12.0000032 8.96391096,11.7918842 8.58641036,11.4143836 C7.80640912,10.6343824 7.80640912,9.36563034 8.58641036,8.5856291 Z M22.0001817,18.000019 C20.97643,18.000019 19.9526784,18.3906447 19.1714272,19.1718959 C17.6095497,20.7337734 17.6095497,23.2669024 19.1714272,24.8287799 C19.9526784,25.6094061 20.97643,26.0000317 22.0001817,26.0000317 C23.0239333,26.0000317 24.0476849,25.6094061 24.8283111,24.8287799 C26.3901886,23.2669024 26.3901886,20.7337734 24.8283111,19.1718959 C24.0476849,18.3906447 23.0239333,18.000019 22.0001817,18.000019 Z M23.4145589,23.4144026 C23.0370583,23.7919032 22.5345575,24.0000222 22.0001817,24.0000222 C21.4658058,24.0000222 20.96393,23.7919032 20.5864294,23.4144026 C19.8064282,22.6344014 19.8064282,21.3656494 20.5864294,20.5856482 C20.96393,20.2081476 21.4664308,20.0000222 22.0001817,20.0000222 C22.5345575,20.0000222 23.0364333,20.2081476 23.4145589,20.5856482 C24.1945601,21.3656494 24.1939351,22.6344014 23.4145589,23.4144026 Z" id="Shape" fill="#1D2939"></path>
    </g>
</svg>