<?xml version="1.0" encoding="UTF-8"?>
<svg width="32px" height="32px" viewBox="0 0 32 32" version="1.1" xmlns="http://www.w3.org/2000/svg" xmlns:xlink="http://www.w3.org/1999/xlink">
    <!-- Generator: Sketch 61.2 (89653) - https://sketch.com -->
    <title>Icons / Search</title>
    <desc>Created with Sketch.</desc>
    <g id="Icons-/-Search" stroke="none" stroke-width="1" fill="none" fill-rule="evenodd">
        <path d="M27.7894737,25.9368421 L22.1099415,20.2573099 C22.0023392,20.1497076 21.8619883,20.0935673 21.7122807,20.0935673 L21.0947368,20.0935673 C22.5684211,18.3859649 23.4619883,16.1637427 23.4619883,13.7309942 C23.4619883,8.35555556 19.1064327,4 13.7309942,4 C8.35555556,4 4,8.35555556 4,13.7309942 C4,19.1064327 8.35555556,23.4619883 13.7309942,23.4619883 C16.1637427,23.4619883 18.3859649,22.5684211 20.0935673,21.0947368 L20.0935673,21.7122807 C20.0935673,21.8619883 20.154386,22.0023392 20.2573099,22.1099415 L25.9368421,27.7894737 C26.1567251,28.0093567 26.5122807,28.0093567 26.7321637,27.7894737 L27.7894737,26.7321637 C28.0093567,26.5122807 28.0093567,26.1567251 27.7894737,25.9368421 Z M13.7309942,21.2163743 C9.59532164,21.2163743 6.24561404,17.8666667 6.24561404,13.7309942 C6.24561404,9.59532164 9.59532164,6.24561404 13.7309942,6.24561404 C17.8666667,6.24561404 21.2163743,9.59532164 21.2163743,13.7309942 C21.2163743,17.8666667 17.8666667,21.2163743 13.7309942,21.2163743 Z" id="Shape" fill="#1D2939"></path>
    </g>
</svg>