<?xml version="1.0" encoding="UTF-8"?>
<svg width="32px" height="32px" viewBox="0 0 32 32" version="1.1" xmlns="http://www.w3.org/2000/svg" xmlns:xlink="http://www.w3.org/1999/xlink">
    <!-- Generator: Sketch 61.2 (89653) - https://sketch.com -->
    <title>Icons / User</title>
    <desc>Created with Sketch.</desc>
    <g id="Icons-/-User" stroke="none" stroke-width="1" fill="none" fill-rule="evenodd">
        <path d="M20.4,18.25 C18.990625,18.25 18.3129464,19 16,19 C13.6870536,19 13.0142857,18.25 11.6,18.25 C7.95625,18.25 5,21.071875 5,24.55 L5,25.75 C5,26.9921875 6.05580357,28 7.35714286,28 L24.6428571,28 C25.9441964,28 27,26.9921875 27,25.75 L27,24.55 C27,21.071875 24.04375,18.25 20.4,18.25 Z M24.6428571,25.75 L7.35714286,25.75 L7.35714286,24.55 C7.35714286,22.31875 9.2625,20.5 11.6,20.5 C12.3169643,20.5 13.4808036,21.25 16,21.25 C18.5388393,21.25 19.678125,20.5 20.4,20.5 C22.7375,20.5 24.6428571,22.31875 24.6428571,24.55 L24.6428571,25.75 Z M16,17.5 C19.9040179,17.5 23.0714286,14.4765625 23.0714286,10.75 C23.0714286,7.0234375 19.9040179,4 16,4 C12.0959821,4 8.92857143,7.0234375 8.92857143,10.75 C8.92857143,14.4765625 12.0959821,17.5 16,17.5 Z M16,6.25 C18.5977679,6.25 20.7142857,8.2703125 20.7142857,10.75 C20.7142857,13.2296875 18.5977679,15.25 16,15.25 C13.4022321,15.25 11.2857143,13.2296875 11.2857143,10.75 C11.2857143,8.2703125 13.4022321,6.25 16,6.25 Z" id="Shape" fill="#1D2939"></path>
    </g>
</svg>