<?xml version="1.0" encoding="UTF-8"?>
<svg width="32px" height="32px" viewBox="0 0 32 32" version="1.1" xmlns="http://www.w3.org/2000/svg" xmlns:xlink="http://www.w3.org/1999/xlink">
    <!-- Generator: Sketch 61.2 (89653) - https://sketch.com -->
    <title>Icons / Wallet</title>
    <desc>Created with Sketch.</desc>
    <g id="Icons-/-Wallet" stroke="none" stroke-width="1" fill="none" fill-rule="evenodd">
        <path d="M25,8.92857143 L25,8.14285714 C25,6.40691964 23.6570313,5 22,5 L8.5,5 C6.0146875,5 4,7.110625 4,9.71428571 L4,22.2857143 C4,24.889375 6.0146875,27 8.5,27 L25,27 C26.6570313,27 28,25.5930804 28,23.8571429 L28,12.0714286 C28,10.3354911 26.6570313,8.92857143 25,8.92857143 Z M25.75,23.8571429 C25.75,24.2902679 25.4134375,24.6428571 25,24.6428571 L8.5,24.6428571 C7.25921875,24.6428571 6.25,23.5855804 6.25,22.2857143 L6.25,9.71428571 C6.25,8.41441964 7.25921875,7.35714286 8.5,7.35714286 L22,7.35714286 C22.4134375,7.35714286 22.75,7.70973214 22.75,8.14285714 L22.75,9.71428571 L9.25,9.71428571 C8.835625,9.71428571 8.5,10.0658929 8.5,10.5 C8.5,10.9341071 8.835625,11.2857143 9.25,11.2857143 L25,11.2857143 C25.4134375,11.2857143 25.75,11.6383036 25.75,12.0714286 L25.75,23.8571429 Z M22,16 C21.1717188,16 20.5,16.7037054 20.5,17.5714286 C20.5,18.4391518 21.1717188,19.1428571 22,19.1428571 C22.8282812,19.1428571 23.5,18.4391518 23.5,17.5714286 C23.5,16.7037054 22.8282812,16 22,16 Z" id="Shape" fill="#1D2939"></path>
    </g>
</svg>